<svg width="24" height="24" viewBox="0 0 24 24" fill="none" xmlns="http://www.w3.org/2000/svg">
<path d="M16.0659 15.4295C16.0457 16.6573 21.3213 16.6056 21.3213 16.6056C21.3213 16.6056 21.3606 18.1668 19.2302 20.6526C16.4843 23.8578 10.5493 25.0436 8.57548 21.4006C8.32029 20.9455 8.17135 20.4392 8.13972 19.9192C8.1081 19.3992 8.19459 18.8788 8.39278 18.3965C8.6228 18.8916 8.92855 19.3483 9.29914 19.7504C9.94264 20.4423 10.7243 20.993 11.5942 21.3672C10.8869 20.8644 10.2363 20.2871 9.65377 19.6454C9.23578 19.1326 8.91499 18.5485 8.70706 17.9216L9.09637 17.4016C10.0148 18.3668 11.0341 19.2317 12.137 19.9818C12.7939 20.485 13.5678 20.8153 14.3871 20.9422C13.5994 20.7037 12.8672 20.3119 12.2331 19.7895C11.2185 18.9104 10.3178 17.9092 9.55188 16.8089C9.90284 16.3622 10.282 15.8976 10.6801 15.4055C11.2967 15.8403 11.9645 16.1986 12.6684 16.4724C13.5579 16.7965 14.4995 16.9559 15.4466 16.9429C14.5457 16.7134 13.6602 16.4274 12.7955 16.0867C12.1521 15.8218 11.58 15.4108 11.1251 14.8865C11.8645 13.9753 12.6502 13.0648 13.4453 12.1545C13.9642 12.4643 14.527 12.6945 15.1149 12.8376C15.6644 12.9894 16.2472 12.9732 16.7873 12.7913C16.2378 12.7431 15.6968 12.6256 15.1771 12.4416C14.6953 12.2706 14.2631 11.9844 13.9186 11.6083C14.9882 10.3793 20.0685 4.71018 20.0685 4.71018L15.3448 9.59103C14.975 8.69414 14.7009 7.76115 14.527 6.80739C14.4386 6.12449 14.4688 5.43159 14.6164 4.75893C14.6164 4.75893 14.4834 5.50469 14.4096 6.60231C14.4426 7.74174 14.6269 8.87185 14.9579 9.96325L12.0577 12.9535C11.5539 12.1508 11.1144 11.3099 10.7433 10.4387C10.2423 9.10781 9.83652 7.74344 9.52896 6.35574C9.60402 7.66334 9.83843 8.95707 10.227 10.2085C10.6012 11.3106 11.065 12.3806 11.6138 13.4079L9.60162 15.4801C8.68844 14.5585 7.85079 13.5659 7.09668 12.5117C6.45475 11.2616 5.89285 9.9724 5.41436 8.65188C5.60416 10.0714 6.06378 11.4421 6.7687 12.6909C7.67324 14.1556 8.66348 15.4923 9.07244 16.0346L8.41116 16.7163C7.35232 16.2933 6.37065 15.7 5.50552 14.9602C4.44857 13.901 3.49148 12.7478 2.64626 11.515C3.32702 12.866 4.18373 14.1219 5.19428 15.2505C6.00204 15.9805 6.89222 16.6149 7.84697 17.141C7.72755 17.2498 7.60518 17.3494 7.47988 17.4397C6.83513 17.5459 6.17429 17.5002 5.55047 17.3063C4.94701 17.0478 4.39601 16.682 3.92451 16.2269C4.30596 16.8291 4.85669 17.3069 5.50847 17.6011C5.88568 17.7761 6.28791 17.8917 6.70079 17.9439C2.55924 20.1842 -0.854359 14.8739 0.476198 10.205C1.53039 6.52877 5.67221 3.14347 5.67221 3.14347C5.52782 4.37805 5.59516 5.62807 5.87137 6.84032C6.32678 8.50993 7.54078 11.4848 9.0384 11.334C10.536 11.1832 6.2453 6.12623 6.83378 3.09796C7.33096 0.53911 12.6299 0.20159 12.6299 0.20159C12.2316 0.378976 11.8775 0.641426 11.5928 0.97029C11.3081 1.29915 11.0998 1.68635 10.9827 2.10436C10.4486 3.5176 11.5114 8.34597 12.6681 8.59587C14.1681 8.86065 11.092 3.36198 13.7924 1.22723C15.3355 0.00605412 17.362 1.57225 18.9595 2.12489C20.0127 2.45343 21.1311 2.5194 22.2159 2.31701C22.2159 2.31701 22.2855 3.16768 22.3746 5.0898C22.4636 7.01193 23.6307 8.3239 22.6736 9.49008C21.7164 10.6563 18.1894 9.97952 18.5162 11.0006C18.843 12.0217 22.7861 10.5538 22.7861 10.5538C22.7861 10.5538 22.7709 11.477 22.6431 13.5987C22.5153 15.7204 16.0945 14.2573 16.0659 15.4295Z" fill="#0EA91E"/>
</svg>
